<svg xmlns="http://www.w3.org/2000/svg" width="800" height="800" viewBox="0 -3 38 38">
  <path d="m36.002 23.01.057-17.089-31.05.019-.001-1.96H38v19.031l-1.998-.001zm-1.007 3.007-1.997-.002.057-17.089-31.05.02-.001-1.96h32.992v19.031zm-2.942 2.003H0V9.99h32.053v18.03zm-2.004-16.089H2.003v14.086h28.045V11.931zm-3.004 12.584c0 .177.044.342.101.5h-11.12c2.766 0 5.009-2.69 5.009-6.01s-2.243-6.01-5.009-6.01h11.119a1.466 1.466 0 0 0-.101.501c0 .83.672 1.502 1.502 1.502.178 0 .343-.044.501-.101v8.215a1.49 1.49 0 0 0-.501-.101 1.504 1.504 0 0 0-1.501 1.504zm-2.004-7.596c-.83 0-1.502.896-1.502 2.003s.672 2.003 1.502 2.003 1.502-.896 1.502-2.003-.672-2.003-1.502-2.003zm-6.918-1.525a.466.466 0 0 1 .037.116c.011.048.018.109.021.182.005.073.007.164.007.273 0 .121-.003.224-.009.307a1.394 1.394 0 0 1-.031.207.259.259 0 0 1-.062.119c-.027.025-.064.038-.11.038s-.118-.029-.219-.087c-.101-.059-.224-.121-.369-.189s-.315-.131-.507-.187-.402-.084-.632-.084c-.18 0-.336.021-.469.065-.134.044-.246.104-.335.181s-.157.17-.2.277a.903.903 0 0 0-.066.343c0 .18.049.335.147.467s.229.248.395.35c.165.103.352.198.56.288s.421.185.638.284c.217.101.43.214.639.342.209.127.395.279.557.456.163.178.295.386.395.626s.15.522.15.848c0 .425-.08.799-.238 1.119-.158.321-.373.59-.645.805s-.588.376-.951.484c-.046.014-.096.02-.143.031v1.094h-.985v-.965c-.013 0-.024.003-.037.003-.279 0-.539-.023-.779-.068s-.452-.101-.635-.164c-.184-.064-.337-.132-.46-.202s-.212-.132-.266-.186-.093-.132-.116-.234-.035-.25-.035-.442c0-.129.004-.238.013-.325a.923.923 0 0 1 .041-.214.239.239 0 0 1 .075-.116.186.186 0 0 1 .109-.034c.059 0 .141.034.248.104a3.758 3.758 0 0 0 1.008.456c.231.069.5.104.804.104.2 0 .38-.024.538-.072s.293-.116.404-.203c.11-.088.194-.197.253-.326s.088-.274.088-.433a.764.764 0 0 0-.15-.473c-.1-.132-.23-.248-.391-.351s-.343-.198-.547-.287c-.205-.09-.415-.185-.632-.285s-.428-.214-.632-.341a2.527 2.527 0 0 1-.547-.457 2.167 2.167 0 0 1-.391-.628c-.1-.242-.15-.532-.15-.87 0-.388.072-.729.216-1.022.144-.294.338-.538.582-.732s.532-.339.863-.435a3.62 3.62 0 0 1 .527-.109v-1.035h.985v1.035c.039.005.078.003.117.009.192.029.372.068.539.118.166.05.314.105.443.168s.215.113.258.155a.396.396 0 0 1 .082.102zm-7.105 3.611c0 3.319 2.242 6.01 5.008 6.01H4.907a1.49 1.49 0 0 0 .101-.5c0-.83-.673-1.503-1.502-1.503a1.49 1.49 0 0 0-.501.101v-8.215c.158.057.323.101.501.101.83 0 1.502-.672 1.502-1.502a1.49 1.49 0 0 0-.101-.501h11.119c-2.766-.001-5.008 2.69-5.008 6.009zm-4.007-2.086c-.83 0-1.502.896-1.502 2.003s.673 2.003 1.502 2.003c.83 0 1.502-.896 1.502-2.003s-.672-2.003-1.502-2.003z" fill="white"/>
</svg>
