<svg xmlns="http://www.w3.org/2000/svg" width="800" height="800" class="icon" viewBox="0 -15.5 1055 1055">
  <path fill="#C0EAFF" d="M220 594h600s-23 70-62 70H230l-10-70zm2-246h131v144zm238 8h144l151 123H606z"/>
  <path fill="#1F87DD" d="M751 678H225a16 16 0 0 1-16-16V278a16 16 0 0 1 31 0v368h511c23 0 42-13 54-35 14-27 13-60-3-86L576 339a15 15 0 0 1-1-2c-28-28-63-43-99-43H300a16 16 0 0 1 0-32h176c44 0 87 19 121 53l227 188 3 3c24 35 26 82 6 120a92 92 0 0 1-82 52z"/>
  <path fill="#1F87DD" d="M781 507H456a16 16 0 0 1-16-16V350a16 16 0 0 1 16-15h69a16 16 0 0 1 0 31h-53v110h309a16 16 0 0 1 0 31zm-427 0H236a16 16 0 0 1 0-31h102V366H236a16 16 0 0 1 0-31h118a16 16 0 0 1 15 15v141a16 16 0 0 1-15 16zm-48 106h-81a16 16 0 0 1 0-31h81a16 16 0 0 1 0 31zm99 0h-37a16 16 0 0 1 0-31h37a16 16 0 0 1 0 31zm422 0H468a16 16 0 0 1 0-31h359a16 16 0 0 1 0 31zm-62 149H229a16 16 0 0 1 0-32h536a16 16 0 0 1 0 32z"/>
</svg>
